<?xml version="1.0" encoding="UTF-8"?>
<svg id="Layer_1" data-name="Layer 1" xmlns="http://www.w3.org/2000/svg" viewBox="0 0 141.43 200.95">
  <defs>
    <style>
      .cls-1 {
        fill: #fff;
      }
    </style>
  </defs>
  <g>
    <path class="cls-1" d="M.5,94.19c20.79,4.98,47.45,13.47,76.36,28.48,26.66,13.84,47.58,29.25,63.03,42.42-13.07-12.42-29.81-31.11-44.24-56.97-19.42-34.8-26.09-67.25-28.64-87.88-3.27,9.68-7.12,25.18-5.91,44.24,.76,12.04,3.33,22.12,5.91,29.7-7.03-2.65-18.11-5.87-31.97-6.06-15.18-.21-27.24,3.31-34.55,6.06Z"/>
    <path d="M1,94.16c6.21,.64,12.67,2.91,18.75,4.51,44.43,12.91,86.04,35.06,121.59,64.73,0,0-2.98,3.31-2.98,3.31-10.18-9.48-19.56-19.84-28-30.93-25.43-33.37-41.78-73.46-47.35-115.04,0,0,7.83,.8,7.83,.8-2.21,5.65-3.99,11.49-5.28,17.46-3.94,18.12-3.25,37.16,1.93,55.01,0,0,0,.02,0,.02,0,0-.65,.63-.65,.63,.35-.94,.09-.26,.16-.47-1.13-.33-2.93-.79-4.09-1.09-9.51-2.39-19.37-3.61-29.15-3.36-8.38,.11-16.58,1.64-24.78,3.29-2.18,.45-4.53,.93-6.73,1.35-.16,.03-.2,.01-.32-.02-.19-.07-.52-.22-.94-.2H1Zm-1,.06c.3-.35,1.16-1.1,1.73-1.31,4.62-2.46,9.65-4.1,14.79-5.07,16.77-2.97,34.52-1.05,50.01,6.12,0,0,.24,.11,.24,.11l.12,.06s.06,.03,.06,.03h.03s.02,.02,.02,.02c.08-.21-.17,.47,.19-.46,0,0-.65,.63-.65,.63,0,0,0-.02,0-.02-7.03-17.77-9.5-37.36-7.2-56.37,1.08-11.36,6.22-26.9,9.3-37.97,2.23,19.54,4.6,40.86,10.35,59.64,3.77,13.05,8.68,25.78,14.67,37.98,11.9,24.51,28.24,46.85,47.78,65.87,0,0-2.98,3.31-2.98,3.31-34.5-30.11-75.39-53.02-119.12-66.75-6.37-2.19-13.02-3.47-19.33-5.82H0Z"/>
  </g>
  <g>
    <path class="cls-1" d="M67.01,94.19c5.52,6.04,11.23,12.1,17.12,18.18,18.71,19.31,37.41,36.84,55.76,52.73"/>
    <path d="M67.38,93.86c2.53,3.43,5.44,6.52,8.35,9.6l8.73,9.25c5.92,6.07,11.92,12.06,18.01,17.95,6.08,5.91,12.3,11.67,18.58,17.36,6.27,5.7,12.71,11.22,19.17,16.71l-.65,.76c-6.35-5.63-12.58-11.38-18.79-17.15-6.22-5.77-12.31-11.67-18.39-17.58-6.07-5.92-12.04-11.95-17.93-18.04l-8.72-9.25c-2.9-3.09-5.8-6.18-9.09-8.92l.74-.68Z"/>
  </g>
</svg>